# xmcd
#
# Track frame offsets: 
#        150
#        15117
#        26348
#        52017
#        69817
#        83831
#        111540
#        131946
#        151683
#        167779
#        189605
#        212584
#        241867
#        260266
#        280658
#        293707
#
# Disc length: 4246 seconds
#
# Revision: 3
# Processed by: cddbd v1.5.2PL0 Copyright (c) Steve Scherf et al.
# Submitted via: ExactAudioCopyFreeDBPlugin 1.0
#
DISCID=d2109410
DTITLE=Diverse Artister - The Celtic Circle¶Ç©_2-1
DYEAR=2003
DGENRE=New Age
TTITLE0=Ryan and Rachel O'Donnell - May it be
TTITLE1=Loreena McKennitt - Runaway
TTITLE2=Clannad - Factory Girl
TTITLE3=James Horner - I will find you
TTITLE4=Clannad and Bono - In A Lifetime
TTITLE5=Loreena McKennitt - Skellig
TTITLE6=Sarah McLachlan - Angel (from the movie CITY OF ANGELS)  
TTITLE7=Elysia - Elysium
TTITLE8=Capercaillie - Ailein Duinn (from the movie ROB ROY) 
TTITLE9=John Willi - Hedwig's Theme (composition from the movie HARRY 
TTITLE9=POTTER)
TTITLE10=Mary Mc Laughlin - Caoineadh Na Mara_Amen (Lament of the Sea)
TTITLE11=Steve Howe and Annie Haslam - Turn Of The Century
TTITLE12=Nightwish - Sleeping Sun
TTITLE13=Annie Ebrel and Gilles Le Bigot Feat. Davy Spillane - Ar Galon 
TTITLE13=Digorr
TTITLE14=Kate Bush - Women Of Ireland (Man Nah Eireann)
TTITLE15=Alan Stivell - Brian Boru  
EXTD=YEAR: 2003
EXTT0=
EXTT1=
EXTT2=
EXTT3=
EXTT4=
EXTT5=
EXTT6=
EXTT7=
EXTT8=
EXTT9=
EXTT10=
EXTT11=
EXTT12=
EXTT13=
EXTT14=
EXTT15=
PLAYORDER=
